<svg id="Layer_1" data-name="Layer 1" xmlns="http://www.w3.org/2000/svg" viewBox="0 0 2000 2000"><title></title><path d="M1619.64,736.73v143a95.34,95.34,0,0,0-95.33,95.33v47.66H1429l95.33-286Z" style="fill:#d1cebe"/><path d="M1858,1022.72V975.06a95.29,95.29,0,0,0-95.33-95.33v-143H1858l95.33,286Z" style="fill:#d1cebe"/><path d="M809.34,1308.71v23.83L785.51,1367l-23.83-34.42v-27.8A288.91,288.91,0,0,0,809.34,1308.71Z" style="fill:#da694b"/><path d="M1806.32,1308.71l-5.19-18.33H1419.82l73,257.76h381.32Zm-283.49,139.55-.06-.21-31.19-110H1767l46,162.43H1537.6Z" style="fill:#413043"/><polygon points="1813 1500.48 1537.6 1500.48 1522.83 1448.26 1522.77 1448.05 1491.58 1338.05 1766.97 1338.05 1813 1500.48" style="fill:#d1cebe"/><path d="M958,457.05c-1.85.58-3.76,1.22-5.61,1.9v-.05C954.19,458.21,956,457.63,958,457.05Z" style="fill:#413043"/><path d="M809.34,1118.05v30.88H761.68v-43.65c.21.11.47.27.69.38a13.75,13.75,0,0,0,1.53.79c.85.48,1.64.9,2.49,1.33a15,15,0,0,0,2.49,1.21l0,0c.16.11.37.17.53.27a6.13,6.13,0,0,0,1,.43,29.22,29.22,0,0,0,3.55,1.53c.53.21,1,.42,1.48.58a19.84,19.84,0,0,0,2,.74s.16.06.21.06c.69.26,1.43.53,2.17.74,1.38.48,2.81.9,4.24,1.27.48.11.95.27,1.43.37,0,0,.11,0,.16,0,1.37.37,2.75.69,4.13,1l1.48.32c1.54.31,3.13.58,4.72.79h.26c.58.11,1.27.16,1.85.21.22.05.43.05.64.11,1.16.16,2.33.21,3.55.32a8.25,8.25,0,0,0,1.11,0c.21,0,.48.05.69.05C805.85,1118,807.54,1118.05,809.34,1118.05Z" style="fill:#413043"/><path d="M1494.33,1549.2l378.45,0,75.42-288.16-378.46,0Zm333.12-48-262.63,0,50.26-192.09,262.63.05Z" style="fill:#413043"/><polygon points="1564.82 1501.16 1827.45 1501.22 1877.71 1309.13 1615.08 1309.08 1564.82 1501.16" style="fill:#da694b"/><path d="M809.34,1118.05v30.88H761.68v-43.65c.21.11.47.27.69.38a13.75,13.75,0,0,0,1.53.79c.85.48,1.64.9,2.49,1.33s1.64.84,2.49,1.21l0,0c.16.11.37.17.53.27a6.13,6.13,0,0,0,1,.43c1.16.52,2.33,1,3.55,1.53.53.21,1,.42,1.48.58a19.84,19.84,0,0,0,2,.74s.16.06.21.06c.69.26,1.43.53,2.17.74,1.38.48,2.81.9,4.24,1.27.48.11.95.27,1.43.37,0,0,.11,0,.16,0,1.37.37,2.75.69,4.13,1l1.48.32c1.54.31,3.13.58,4.72.79h.26c.58.11,1.27.16,1.85.21.22.05.43.05.64.11,1.16.16,2.33.21,3.55.32a8.25,8.25,0,0,0,1.11,0c.21,0,.48.05.69.05C805.85,1118,807.54,1118.05,809.34,1118.05Z" style="fill:#413043"/><path d="M1858,1022.72V975.06a95.29,95.29,0,0,0-95.33-95.33v-143h143V689.07L1858,450.75H1524.31l-47.67,238.32v47.66h143v143a95.34,95.34,0,0,0-95.33,95.33v47.66h-143V927.39a190.58,190.58,0,0,0-190.66-190.66h-25.58a189.3,189.3,0,0,0,25.58-95.33c0-3.28-.11-6.56-.27-9.79s-.37-6.52-.74-9.7c-.16-1.58-.32-3.17-.53-4.76-.42-3.18-.9-6.36-1.43-9.48a198,198,0,0,0-7-27.43c-1-2.92-2.07-5.83-3.23-8.74-.53-1.43-1.12-2.86-1.75-4.29-1.22-2.86-2.49-5.67-3.81-8.48s-2.76-5.5-4.19-8.21-3-5.34-4.61-8c-1-1.75-2.17-3.44-3.28-5.14s-2-3.12-3.07-4.61c-1.27-1.85-2.59-3.65-3.92-5.45-1.8-2.44-3.71-4.87-5.67-7.2s-3.92-4.67-6-6.94-4.13-4.45-6.3-6.62-4.35-4.29-6.62-6.31-4.56-4.07-6.94-6-4.77-3.86-7.21-5.67c-1.8-1.32-3.6-2.65-5.45-3.92-1.48-1.06-3-2.06-4.61-3.07s-3.38-2.22-5.13-3.28c-2.65-1.59-5.3-3.13-8-4.61s-5.46-2.86-8.21-4.18-5.61-2.6-8.47-3.82q-2.15-.94-4.29-1.74c-2.92-1.17-5.83-2.23-8.74-3.23a198.51,198.51,0,0,0-27.44-7.05c-3.12-.53-6.3-1-9.48-1.43-1.58-.21-3.17-.37-4.76-.53-3.18-.37-6.41-.58-9.69-.74s-6.52-.26-9.8-.26a191,191,0,0,0-47.66,6c-82.2,21.18-143,95.86-143,184.67a189.3,189.3,0,0,0,25.58,95.33H809.34c-157.93,0-286,128.06-286,286h-143v-143a47.73,47.73,0,0,0-47.66-47.67h-143A47.66,47.66,0,0,0,142,879.73v143H46.71v47.66H527.33c20.07,119.75,114.6,214.28,234.35,234.36a288.91,288.91,0,0,0,47.66,4V1148.93H761.68v-43.65a95.23,95.23,0,0,1-34.85-34.9h463.83V1404h190.66V1070.38h572v-47.66Zm-1525.26,0h-143v-143h143ZM952.34,458.9c1.85-.69,3.7-1.27,5.61-1.85-1.85.58-3.76,1.22-5.61,1.9ZM857.75,626.79c.21-2.39.53-4.77.9-7.15.74-4.77,1.69-9.38,2.86-14a138.06,138.06,0,0,1,4.18-13.4c.58-1.64,1.22-3.29,1.91-4.88.53-1.37,1.11-2.75,1.74-4.07a10.16,10.16,0,0,1,.8-1.7,28.46,28.46,0,0,1,1.54-3.28c.58-1.22,1.16-2.44,1.85-3.6.53-1.11,1.11-2.17,1.75-3.23,1-1.75,2-3.5,3.07-5.19.95-1.65,2-3.23,3.07-4.82,2.6-3.82,5.35-7.52,8.26-11,1.43-1.8,3-3.49,4.5-5.19s3.08-3.39,4.72-5,3.28-3.17,5-4.71a.11.11,0,0,1,.1-.11c1.17-1.06,2.33-2.11,3.55-3A106.51,106.51,0,0,1,918.39,524l2.54-1.75c1.32-.95,2.7-1.8,4.13-2.64.74-.48,1.48-.95,2.23-1.38,1.42-.85,2.86-1.69,4.34-2.49a1.57,1.57,0,0,0,.37-.21c2-1.06,4-2.12,6-3.07,2.22-1.06,4.5-2.07,6.77-3,2.49-1.06,5-2,7.53-2.86v-.05c1.85-.69,3.7-1.28,5.61-1.86a138.42,138.42,0,0,1,18.69-4.39,36.34,36.34,0,0,1,4.29-.59c3.29-.47,6.62-.84,10-1a.66.66,0,0,1,.48,0c.05-.06.05-.06.11,0a19.43,19.43,0,0,1,3.49-.16c1.64-.11,3.28-.16,5-.16a143,143,0,0,1,2.75,285.94c-.9,0-1.85,0-2.75,0s-1.85,0-2.75,0A143,143,0,0,1,857,641.4C857,636.48,857.27,631.61,857.75,626.79Zm-96.07,395.93H714a95.12,95.12,0,0,1,47.67-82.51Zm572,333.65h-95.33V879.73h-47.66v143H809.34v-143a143,143,0,0,0-47.66,277.83v98.72A238.09,238.09,0,0,1,571,1022.72C571,891.11,677.73,784.4,809.34,784.4H873.9a190.65,190.65,0,0,0,252.2,0h64.56a143,143,0,0,1,143,143Zm190.66-667.3,38.13-190.66h257.39L1858,689.07ZM1715,736.73v143H1667.3v-143Zm95.33,286H1572V975.06a47.67,47.67,0,0,1,47.67-47.67h143a47.67,47.67,0,0,1,47.67,47.67Z" style="fill:#413043"/><polygon points="1857.96 689.07 1524.31 689.07 1562.44 498.41 1819.83 498.41 1857.96 689.07" style="fill:#da694b"/><path d="M857,1118.05V1451.7h286V1118.05Zm238.32,286H904.67V1165.71h190.66Z" style="fill:#413043"/><path d="M809.34,1116.51v32.42H761.68v-32.42a23.83,23.83,0,0,1,47.66,0Z" style="fill:#da694b"/><rect x="936.45" y="1332.54" width="127.11" height="23.83" style="fill:#da694b"/><rect x="936.45" y="1284.88" width="127.11" height="23.83" style="fill:#da694b"/><rect x="1000" y="1237.21" width="63.55" height="23.83" style="fill:#da694b"/><rect x="189.7" y="975.06" width="142.99" height="47.66" style="fill:#da694b"/><path d="M285,736.73v95.33H237.37V784.4a47.73,47.73,0,0,1-47.67-47.67h47.67a47.73,47.73,0,0,1-47.67-47.66h47.67A47.66,47.66,0,0,1,285,736.73Z" style="fill:#d1cebe"/><path d="M952.34,458.9V459c1.85-.68,3.76-1.32,5.61-1.9C956,457.63,954.19,458.21,952.34,458.9Z" style="fill:#413043"/><path d="M958,457.05c-1.85.58-3.76,1.22-5.61,1.9v-.05C954.19,458.21,956,457.63,958,457.05Z" style="fill:#d1cebe"/><path d="M904.67,665.24a23.84,23.84,0,1,1,47.67,0Z" style="fill:#413043"/><path d="M958,457.05c-1.85.58-3.76,1.22-5.61,1.9v-.05C954.19,458.21,956,457.63,958,457.05Z" style="fill:#d1cebe"/><path d="M1047.66,665.24a23.84,23.84,0,1,1,47.67,0Z" style="fill:#413043"/><circle cx="928.5" cy="665.24" r="23.83" style="fill:#413043"/><circle cx="1071.5" cy="665.24" r="23.83" style="fill:#413043"/></svg>