<svg id="svg" version="1.1" xmlns="http://www.w3.org/2000/svg" xmlns:xlink="http://www.w3.org/1999/xlink" width="400" height="496.9014084507042" viewBox="0, 0, 400,496.9014084507042"><g id="svgg"><path id="path0" d="M0.000 248.400 L 0.000 496.800 11.553 496.800 C 22.613 496.800,23.115 496.767,23.308 496.031 C 23.535 495.163,25.753 494.406,28.076 494.402 C 28.888 494.401,29.648 494.245,29.765 494.057 C 29.882 493.868,31.088 493.612,32.445 493.489 C 33.802 493.366,35.022 493.097,35.156 492.891 C 35.290 492.685,36.345 492.292,37.500 492.018 C 38.655 491.744,39.600 491.372,39.600 491.192 C 39.600 491.011,40.140 490.745,40.800 490.600 C 41.460 490.455,42.000 490.199,42.000 490.032 C 42.000 489.864,42.765 489.500,43.700 489.222 C 44.635 488.944,45.580 488.581,45.800 488.414 C 46.020 488.247,46.738 487.981,47.396 487.823 C 48.054 487.666,48.684 487.410,48.796 487.255 C 48.908 487.100,50.260 486.448,51.800 485.805 C 53.340 485.163,54.838 484.404,55.129 484.118 C 55.419 483.833,55.797 483.600,55.967 483.600 C 56.138 483.600,56.648 483.285,57.101 482.900 C 57.555 482.515,58.319 481.930,58.800 481.600 C 59.281 481.270,60.045 480.685,60.499 480.300 C 60.952 479.915,61.536 479.600,61.796 479.600 C 62.391 479.600,65.600 476.578,65.600 476.018 C 65.600 475.445,72.220 468.800,72.791 468.800 C 73.918 468.800,78.311 464.706,81.160 461.000 C 81.837 460.120,82.573 459.183,82.795 458.917 C 83.018 458.651,83.200 458.359,83.200 458.269 C 83.200 458.178,84.280 456.332,85.600 454.167 C 86.920 452.002,88.000 450.014,88.000 449.749 C 88.000 449.484,88.135 449.207,88.300 449.133 C 88.465 449.060,89.140 447.920,89.800 446.600 C 90.460 445.280,91.111 444.110,91.246 444.000 C 91.381 443.890,91.619 443.395,91.773 442.900 C 91.928 442.405,92.202 442.000,92.384 442.000 C 92.565 442.000,92.837 441.507,92.988 440.904 C 93.140 440.301,93.387 439.716,93.539 439.604 C 94.231 439.092,98.373 430.017,98.607 428.502 C 98.752 427.568,99.034 426.703,99.235 426.578 C 99.436 426.454,99.600 426.075,99.600 425.734 C 99.600 425.394,100.050 424.220,100.600 423.125 C 101.150 422.030,101.600 420.894,101.600 420.600 C 101.600 420.307,101.784 420.005,102.009 419.930 C 102.233 419.856,102.600 417.636,102.823 414.997 C 103.050 412.315,103.508 409.602,103.861 408.843 C 104.573 407.310,104.590 407.000,104.181 402.709 C 103.912 399.893,103.953 399.594,104.643 399.339 C 105.059 399.184,105.528 398.865,105.685 398.629 C 106.182 397.882,132.734 398.047,133.200 398.800 C 133.705 399.616,182.046 399.709,183.474 398.897 C 184.164 398.504,207.014 398.400,292.174 398.400 L 400.000 398.400 399.900 199.100 L 399.801 -0.200 399.700 198.500 L 399.599 397.200 374.400 397.200 L 349.200 397.200 349.196 391.900 C 349.191 383.746,347.768 362.791,346.623 354.000 C 345.284 343.728,342.700 328.813,341.008 321.600 C 340.673 320.170,340.049 317.470,339.621 315.600 C 338.024 308.616,336.843 304.166,334.524 296.400 C 333.732 293.749,329.667 281.327,329.223 280.200 C 329.049 279.760,328.537 278.410,328.085 277.200 C 327.633 275.990,326.259 272.442,325.032 269.315 C 323.804 266.188,322.800 263.537,322.800 263.424 C 322.800 263.310,322.194 261.909,321.453 260.309 C 320.712 258.709,319.497 256.050,318.753 254.400 C 313.031 241.711,302.910 222.861,296.095 212.200 C 292.874 207.161,292.533 206.637,290.241 203.200 C 288.995 201.330,287.067 198.540,285.957 197.000 C 284.848 195.460,283.527 193.570,283.023 192.800 C 281.972 191.194,271.000 177.120,268.127 173.691 C 265.143 170.131,258.314 162.378,256.571 160.572 C 248.898 152.621,245.743 149.466,240.760 144.759 C 235.741 140.019,233.215 137.742,226.822 132.196 C 226.063 131.538,224.713 130.355,223.822 129.566 C 219.535 125.774,199.324 110.741,193.800 107.236 C 189.881 104.749,185.535 101.980,183.400 100.608 C 181.126 99.148,176.431 96.400,176.210 96.400 C 176.129 96.400,174.486 95.489,172.558 94.376 C 166.656 90.967,154.291 84.556,149.200 82.264 C 147.990 81.720,146.100 80.871,145.000 80.378 C 143.900 79.886,141.830 78.953,140.400 78.305 C 137.938 77.190,135.114 76.057,124.400 71.888 C 113.840 67.779,97.864 62.759,87.000 60.137 C 85.680 59.819,83.610 59.319,82.400 59.027 C 76.563 57.618,72.334 56.675,69.600 56.174 C 67.950 55.872,64.620 55.253,62.200 54.799 C 48.091 52.152,21.181 49.593,7.500 49.598 L 1.600 49.600 1.600 24.800 C 1.600 0.267,1.591 0.000,0.800 0.000 C 0.001 0.000,0.000 0.267,0.000 248.400 M24.200 99.620 C 27.500 99.824,31.550 100.171,33.200 100.390 C 34.850 100.608,37.730 100.968,39.600 101.188 C 46.450 101.995,57.075 103.766,63.600 105.190 C 65.690 105.646,68.210 106.182,69.200 106.382 C 72.306 107.010,83.201 109.932,88.000 111.424 C 90.530 112.211,93.410 113.097,94.400 113.393 C 96.468 114.012,103.252 116.387,106.200 117.525 C 107.300 117.950,109.280 118.700,110.600 119.192 C 119.003 122.325,138.432 131.496,146.600 136.185 C 148.580 137.322,150.470 138.377,150.800 138.530 C 151.130 138.683,151.940 139.165,152.600 139.600 C 153.260 140.035,154.070 140.519,154.400 140.675 C 155.873 141.372,170.210 150.562,170.800 151.188 C 170.910 151.305,172.170 152.201,173.600 153.180 C 176.222 154.975,185.629 161.950,186.000 162.374 C 186.110 162.500,187.550 163.672,189.200 164.978 C 208.763 180.467,230.239 203.322,245.410 224.800 C 249.528 230.630,259.200 245.639,259.200 246.199 C 259.200 246.273,259.979 247.654,260.932 249.267 C 267.073 259.670,274.858 275.898,279.368 287.700 C 279.936 289.185,280.835 291.525,281.366 292.900 C 283.217 297.688,285.921 305.843,287.766 312.200 C 288.787 315.720,289.784 319.140,289.980 319.800 C 290.347 321.032,291.362 325.201,292.755 331.200 C 293.190 333.070,293.922 336.580,294.382 339.000 C 294.842 341.420,295.390 344.300,295.599 345.400 C 297.858 357.290,299.564 375.142,299.707 388.400 L 299.800 397.000 200.700 397.101 L 101.600 397.202 101.595 398.901 C 101.445 450.103,57.087 494.838,5.200 496.116 L 1.800 496.200 1.698 298.000 C 1.641 188.990,1.691 99.549,1.807 99.242 C 2.034 98.646,10.928 98.796,24.200 99.620 " stroke="none" fill="#fbfbfb" fill-rule="evenodd"></path><path id="path1" d="M2.400 24.600 L 2.400 49.200 4.700 49.213 C 15.005 49.269,41.232 50.983,44.800 51.833 C 45.350 51.964,47.960 52.309,50.600 52.599 C 53.240 52.890,58.460 53.680,62.200 54.356 C 70.580 55.871,69.654 55.675,83.200 58.819 C 86.691 59.629,93.426 61.415,102.000 63.803 C 116.865 67.943,141.879 77.916,158.000 86.131 C 221.535 118.505,269.212 164.173,305.901 227.800 C 307.662 230.854,315.024 245.341,317.087 249.812 C 317.794 251.345,319.203 254.400,320.216 256.600 C 324.518 265.936,332.983 288.857,334.989 296.600 C 335.455 298.396,336.489 302.040,338.170 307.800 C 338.491 308.900,339.132 311.510,339.595 313.600 C 340.059 315.690,340.777 318.840,341.192 320.600 C 345.993 340.959,349.061 367.038,349.710 393.000 L 349.800 396.600 374.300 396.703 L 398.800 396.806 398.800 198.403 L 398.800 0.000 200.600 0.000 L 2.400 0.000 2.400 24.600 " stroke="none" fill="#443444" fill-rule="evenodd"></path><path id="path2" d="M2.400 297.450 L 2.400 495.701 8.100 495.499 C 17.669 495.160,28.841 492.749,38.200 489.004 C 47.267 485.376,58.511 478.832,64.476 473.711 C 78.337 461.812,89.168 447.018,94.233 433.062 C 98.411 421.554,100.115 413.768,100.797 403.083 C 101.004 399.828,101.280 396.993,101.411 396.783 C 101.560 396.541,138.044 396.400,200.688 396.400 L 299.728 396.400 299.469 386.900 C 299.326 381.675,299.032 376.050,298.814 374.400 C 298.596 372.750,298.234 369.240,298.010 366.600 C 297.378 359.155,295.685 347.453,294.047 339.200 C 293.589 336.890,293.036 334.100,292.818 333.000 C 292.601 331.900,292.240 330.370,292.015 329.600 C 291.791 328.830,291.048 325.950,290.363 323.200 C 288.662 316.366,288.143 314.402,287.668 313.000 C 287.444 312.340,286.864 310.450,286.380 308.800 C 284.902 303.767,281.200 293.130,279.281 288.400 C 279.057 287.850,278.488 286.410,278.016 285.200 C 277.544 283.990,276.997 282.640,276.800 282.200 C 276.604 281.760,276.074 280.545,275.622 279.500 C 273.056 273.567,271.458 270.133,268.503 264.200 C 257.690 242.492,245.742 224.355,229.108 204.400 C 224.817 199.251,219.903 193.940,212.800 186.774 C 207.835 181.764,204.723 178.846,196.000 171.022 C 193.812 169.060,180.827 158.693,178.600 157.131 C 177.500 156.360,174.440 154.210,171.800 152.354 C 155.695 141.030,138.090 131.289,119.000 123.139 C 115.920 121.824,113.040 120.581,112.600 120.378 C 112.160 120.174,110.540 119.551,109.000 118.992 C 107.460 118.434,105.840 117.813,105.400 117.613 C 104.960 117.413,103.194 116.780,101.475 116.205 C 99.756 115.630,97.956 115.004,97.475 114.812 C 95.769 114.133,83.916 110.549,79.600 109.407 C 78.170 109.029,76.190 108.485,75.200 108.199 C 74.210 107.913,72.770 107.563,72.000 107.421 C 71.230 107.279,69.520 106.912,68.200 106.605 C 49.720 102.308,24.140 99.198,7.300 99.200 L 2.400 99.200 2.400 297.450 " stroke="none" fill="#dc6c4c" fill-rule="evenodd"></path><path id="path3" d="M1.867 99.067 C 1.263 99.670,1.565 496.012,2.169 496.244 C 2.482 496.364,4.597 496.293,6.869 496.088 L 11.000 495.713 6.700 495.657 L 2.400 495.600 2.400 297.413 L 2.400 99.226 6.900 99.099 L 11.400 98.971 6.767 98.886 C 4.218 98.838,2.013 98.920,1.867 99.067 M24.194 100.023 C 33.408 100.717,36.218 100.797,32.074 100.248 C 29.362 99.888,18.583 99.208,16.400 99.258 C 15.410 99.282,18.917 99.626,24.194 100.023 M36.800 101.164 C 39.601 101.679,44.508 102.039,42.800 101.605 C 42.030 101.409,39.960 101.155,38.200 101.041 C 35.831 100.888,35.468 100.920,36.800 101.164 M47.600 102.609 C 49.030 102.913,50.560 103.156,51.000 103.147 C 52.428 103.119,49.970 102.532,47.381 102.283 L 45.000 102.055 47.600 102.609 M55.608 103.949 C 57.066 104.430,60.787 104.871,59.800 104.446 C 59.360 104.256,58.010 103.992,56.800 103.859 C 55.411 103.706,54.972 103.739,55.608 103.949 M61.847 105.193 C 62.313 105.381,63.573 105.632,64.647 105.750 L 66.600 105.965 64.600 105.421 C 62.218 104.773,60.443 104.626,61.847 105.193 M69.000 106.766 C 69.440 106.940,70.610 107.184,71.600 107.309 L 73.400 107.536 71.800 106.999 C 70.008 106.397,67.546 106.193,69.000 106.766 M74.400 107.946 C 74.730 108.156,75.720 108.437,76.600 108.571 C 77.692 108.737,77.946 108.702,77.400 108.459 C 76.172 107.914,73.676 107.487,74.400 107.946 M79.800 109.380 C 84.123 110.778,87.615 111.718,87.798 111.535 C 87.911 111.423,85.977 110.761,83.501 110.064 C 79.055 108.813,76.698 108.378,79.800 109.380 M89.400 112.162 C 90.060 112.453,91.140 112.798,91.800 112.929 L 93.000 113.167 91.800 112.638 C 91.140 112.347,90.060 112.002,89.400 111.871 L 88.200 111.633 89.400 112.162 M93.600 113.537 C 93.930 113.741,94.830 114.027,95.600 114.171 C 96.530 114.346,96.799 114.310,96.400 114.063 C 96.070 113.859,95.170 113.573,94.400 113.429 C 93.470 113.254,93.201 113.290,93.600 113.537 M98.000 114.930 C 98.550 115.238,99.540 115.597,100.200 115.728 L 101.400 115.967 100.200 115.433 C 99.540 115.139,98.550 114.780,98.000 114.635 L 97.000 114.371 98.000 114.930 M102.600 116.614 C 103.260 116.917,104.070 117.157,104.400 117.149 C 104.730 117.142,104.460 116.888,103.800 116.586 C 103.140 116.283,102.330 116.043,102.000 116.051 C 101.670 116.058,101.940 116.312,102.600 116.614 M105.200 117.438 C 105.200 117.639,106.457 118.145,108.000 118.566 C 108.862 118.801,108.899 118.775,108.271 118.383 C 107.424 117.854,105.200 117.170,105.200 117.438 M109.600 119.133 C 109.930 119.336,110.650 119.624,111.200 119.771 C 111.895 119.957,112.017 119.925,111.600 119.667 C 111.270 119.464,110.550 119.176,110.000 119.029 C 109.305 118.843,109.183 118.875,109.600 119.133 M112.600 120.400 C 112.736 120.620,113.062 120.802,113.324 120.805 C 113.586 120.807,116.851 122.151,120.580 123.792 C 124.309 125.432,127.433 126.700,127.523 126.610 C 127.613 126.520,127.082 126.188,126.343 125.872 C 125.604 125.556,122.274 124.106,118.941 122.649 C 112.650 119.898,112.189 119.735,112.600 120.400 M128.000 126.962 C 128.000 127.160,133.185 129.608,133.545 129.581 C 133.862 129.556,128.714 126.846,128.300 126.819 C 128.135 126.809,128.000 126.873,128.000 126.962 M134.000 129.791 C 134.000 129.983,138.642 132.457,140.900 133.468 C 143.550 134.656,141.649 133.431,138.000 131.600 C 135.800 130.496,134.000 129.682,134.000 129.791 M142.976 134.613 C 143.404 134.936,143.944 135.194,144.176 135.187 C 144.409 135.180,144.251 134.910,143.824 134.587 C 143.396 134.264,142.856 134.006,142.624 134.013 C 142.391 134.020,142.549 134.290,142.976 134.613 M146.800 136.553 C 146.800 136.647,147.745 137.259,148.900 137.913 C 150.055 138.566,151.720 139.514,152.600 140.018 C 153.480 140.522,153.990 140.703,153.734 140.421 C 153.239 139.876,153.013 139.740,149.222 137.691 C 147.890 136.972,146.800 136.460,146.800 136.553 M154.448 140.981 C 154.634 141.167,163.666 146.882,165.800 148.164 L 167.000 148.884 165.820 147.942 C 163.586 146.158,153.374 139.907,154.448 140.981 M167.200 148.932 C 167.200 149.058,168.010 149.719,169.000 150.400 C 169.990 151.081,170.800 151.479,170.800 151.283 C 170.800 151.088,170.395 150.722,169.900 150.470 C 169.405 150.218,168.595 149.718,168.100 149.357 C 167.605 148.997,167.200 148.806,167.200 148.932 M171.200 151.743 C 171.200 151.848,172.679 152.983,174.487 154.267 C 178.399 157.043,178.800 157.301,178.800 157.039 C 178.800 156.929,177.315 155.786,175.500 154.500 C 171.682 151.793,171.200 151.484,171.200 151.743 M180.920 158.671 C 181.310 159.301,186.001 162.874,185.984 162.527 C 185.975 162.347,184.780 161.322,183.329 160.249 C 181.877 159.176,180.793 158.466,180.920 158.671 M186.400 162.954 C 186.400 163.068,188.245 164.623,190.500 166.411 C 192.755 168.198,193.861 168.972,192.957 168.130 C 190.949 166.260,186.400 162.669,186.400 162.954 M194.800 169.737 C 194.800 169.895,195.470 170.604,196.290 171.312 C 207.303 180.832,220.833 194.473,229.108 204.400 C 234.000 210.269,237.220 214.332,240.914 219.300 C 243.326 222.545,245.378 225.200,245.474 225.200 C 246.290 225.200,233.610 208.956,225.959 200.200 C 220.692 194.171,206.811 180.155,201.000 174.997 C 198.800 173.044,196.505 170.997,195.900 170.448 C 195.295 169.899,194.800 169.580,194.800 169.737 M245.959 226.200 C 246.180 226.640,246.829 227.540,247.401 228.200 C 247.974 228.860,248.262 229.040,248.041 228.600 C 247.820 228.160,247.171 227.260,246.599 226.600 C 246.026 225.940,245.738 225.760,245.959 226.200 M248.941 230.500 C 249.292 230.995,250.122 232.300,250.785 233.400 C 251.935 235.307,254.014 238.058,253.355 236.800 C 252.556 235.274,248.768 229.600,248.549 229.600 C 248.413 229.600,248.590 230.005,248.941 230.500 M253.846 238.015 C 255.826 241.456,258.943 246.391,259.061 246.272 C 259.242 246.092,254.611 238.437,253.954 237.827 C 253.613 237.511,253.585 237.560,253.846 238.015 M260.187 248.600 C 260.803 249.700,261.492 250.780,261.719 251.000 C 261.946 251.220,261.628 250.500,261.013 249.400 C 260.397 248.300,259.708 247.220,259.481 247.000 C 259.254 246.780,259.572 247.500,260.187 248.600 M263.200 254.000 C 263.866 255.320,264.493 256.400,264.593 256.400 C 264.827 256.400,264.415 255.422,263.287 253.300 C 261.901 250.693,261.828 251.282,263.200 254.000 M265.120 257.500 C 265.755 259.013,268.819 264.800,268.985 264.800 C 269.213 264.800,268.536 263.301,266.683 259.700 C 265.335 257.082,264.380 255.737,265.120 257.500 M269.219 265.252 C 269.182 265.736,271.284 270.049,271.468 269.866 C 271.570 269.764,271.110 268.627,270.446 267.340 C 269.782 266.053,269.230 265.113,269.219 265.252 M272.055 271.587 C 272.288 272.255,272.634 272.897,272.823 273.014 C 273.013 273.132,272.977 272.681,272.745 272.013 C 272.512 271.345,272.166 270.703,271.977 270.586 C 271.787 270.468,271.823 270.919,272.055 271.587 M273.428 274.400 C 273.572 274.950,273.850 275.571,274.045 275.780 C 274.616 276.391,274.441 275.514,273.769 274.400 L 273.167 273.400 273.428 274.400 M274.400 276.551 C 274.400 277.018,275.677 279.657,275.829 279.505 C 276.038 279.295,274.888 276.400,274.595 276.400 C 274.488 276.400,274.400 276.468,274.400 276.551 M276.228 280.800 C 276.372 281.350,276.650 281.971,276.845 282.180 C 277.416 282.791,277.241 281.914,276.569 280.800 L 275.967 279.800 276.228 280.800 M277.432 283.600 C 277.816 285.052,278.376 286.003,278.374 285.200 C 278.373 284.870,278.101 284.150,277.769 283.600 L 277.167 282.600 277.432 283.600 M278.826 287.200 C 278.827 287.530,279.099 288.250,279.431 288.800 L 280.033 289.800 279.768 288.800 C 279.384 287.348,278.824 286.397,278.826 287.200 M280.229 290.800 C 280.376 291.350,280.664 292.070,280.867 292.400 C 281.125 292.817,281.157 292.695,280.971 292.000 C 280.824 291.450,280.536 290.730,280.333 290.400 C 280.075 289.983,280.043 290.105,280.229 290.800 M281.435 294.000 C 281.580 294.550,281.939 295.540,282.233 296.200 L 282.767 297.400 282.528 296.200 C 282.397 295.540,282.038 294.550,281.730 294.000 L 281.171 293.000 281.435 294.000 M283.029 298.400 C 283.176 298.950,283.464 299.670,283.667 300.000 C 283.925 300.417,283.957 300.295,283.771 299.600 C 283.624 299.050,283.336 298.330,283.133 298.000 C 282.875 297.583,282.843 297.705,283.029 298.400 M284.029 301.029 C 283.988 301.633,285.257 305.276,285.444 305.090 C 285.528 305.005,285.251 303.960,284.828 302.768 C 284.405 301.576,284.045 300.793,284.029 301.029 M285.849 306.800 C 286.124 308.387,286.789 309.852,286.757 308.800 C 286.747 308.470,286.484 307.570,286.173 306.800 L 285.607 305.400 285.849 306.800 M286.840 309.827 C 286.779 310.478,288.030 314.504,288.230 314.303 C 288.327 314.206,288.063 313.063,287.643 311.764 C 287.223 310.464,286.862 309.592,286.840 309.827 M288.629 316.200 C 288.763 317.080,289.044 318.070,289.254 318.400 C 289.713 319.124,289.286 316.628,288.741 315.400 C 288.498 314.854,288.463 315.108,288.629 316.200 M289.612 319.718 C 289.588 320.346,290.908 325.225,291.061 325.073 C 291.275 324.858,290.387 320.739,289.966 320.000 C 289.778 319.670,289.619 319.543,289.612 319.718 M291.443 327.200 C 291.579 328.190,291.854 329.270,292.053 329.600 C 292.496 330.331,292.052 327.385,291.542 326.200 C 291.320 325.687,291.285 326.046,291.443 327.200 M292.674 332.400 C 292.808 333.390,293.072 334.560,293.261 335.000 C 293.477 335.506,293.510 335.138,293.351 334.000 C 293.212 333.010,292.948 331.840,292.764 331.400 C 292.557 330.906,292.523 331.288,292.674 332.400 M294.216 339.904 C 294.333 341.061,294.600 342.411,294.809 342.904 C 295.083 343.548,295.119 343.241,294.936 341.808 C 294.564 338.893,293.949 337.268,294.216 339.904 M295.491 347.000 C 295.621 348.320,295.877 349.850,296.060 350.400 C 296.507 351.751,296.066 347.253,295.603 345.741 C 295.362 344.954,295.327 345.345,295.491 347.000 M296.525 353.400 C 297.422 361.075,297.750 363.336,297.901 362.889 C 298.107 362.281,296.827 351.889,296.511 351.600 C 296.390 351.490,296.397 352.300,296.525 353.400 M298.289 368.600 C 298.407 371.020,298.652 373.720,298.833 374.600 C 299.249 376.619,298.832 368.544,298.389 366.000 C 298.198 364.903,298.159 365.920,298.289 368.600 M299.337 380.600 C 299.339 382.360,299.409 383.030,299.493 382.089 C 299.578 381.149,299.577 379.709,299.491 378.889 C 299.405 378.070,299.336 378.840,299.337 380.600 M299.687 390.900 L 299.600 396.400 200.624 396.400 C 135.420 396.400,101.563 396.536,101.401 396.798 C 101.266 397.017,101.086 399.132,101.001 401.498 C 100.880 404.874,100.919 405.326,101.184 403.600 C 101.369 402.390,101.539 400.455,101.560 399.300 L 101.600 397.200 200.613 397.200 C 281.502 397.200,299.662 397.105,299.825 396.680 C 299.935 396.394,299.968 393.739,299.900 390.780 L 299.775 385.400 299.687 390.900 M100.493 408.400 C 100.493 409.170,100.575 409.485,100.676 409.100 C 100.776 408.715,100.776 408.085,100.676 407.700 C 100.575 407.315,100.493 407.630,100.493 408.400 M99.686 413.167 C 99.419 415.019,99.272 416.606,99.360 416.693 C 99.610 416.943,100.483 411.321,100.318 410.519 C 100.237 410.123,99.953 411.315,99.686 413.167 M98.400 419.400 C 98.142 420.645,98.020 421.753,98.130 421.863 C 98.240 421.973,98.542 421.045,98.800 419.800 C 99.058 418.555,99.180 417.447,99.070 417.337 C 98.960 417.227,98.658 418.155,98.400 419.400 M97.202 424.060 C 96.955 425.017,96.661 426.115,96.549 426.500 C 96.438 426.885,96.443 427.200,96.562 427.200 C 96.879 427.200,98.111 422.778,97.863 422.530 C 97.747 422.414,97.450 423.102,97.202 424.060 M95.640 429.040 C 95.097 431.008,95.377 431.288,96.000 429.400 C 96.264 428.601,96.385 427.852,96.269 427.736 C 96.153 427.620,95.870 428.207,95.640 429.040 M94.400 432.400 C 94.121 433.074,93.986 433.719,94.100 433.833 C 94.214 433.947,94.509 433.462,94.756 432.756 C 95.338 431.086,95.059 430.808,94.400 432.400 M92.865 436.217 C 92.195 437.688,92.323 438.002,93.047 436.665 C 93.386 436.040,93.588 435.454,93.496 435.363 C 93.405 435.271,93.121 435.656,92.865 436.217 M91.626 438.931 C 91.408 439.504,90.860 440.699,90.407 441.586 C 89.954 442.474,89.675 443.200,89.786 443.200 C 90.126 443.200,92.467 438.334,92.237 438.104 C 92.119 437.986,91.844 438.358,91.626 438.931 M86.916 447.698 C 81.679 456.599,72.248 467.605,65.312 472.909 C 64.384 473.619,63.619 474.347,63.612 474.528 C 63.563 475.826,74.372 465.337,79.178 459.421 C 83.215 454.453,89.964 444.230,89.508 443.775 C 89.410 443.676,88.243 445.442,86.916 447.698 M60.000 477.071 C 58.350 478.287,55.154 480.372,52.898 481.705 C 50.642 483.039,48.876 484.210,48.975 484.308 C 49.338 484.671,61.744 476.673,62.810 475.387 C 63.549 474.498,63.253 474.675,60.000 477.071 M45.660 485.644 C 44.264 486.310,43.211 486.944,43.320 487.053 C 43.536 487.269,48.400 484.914,48.400 484.594 C 48.400 484.329,48.504 484.289,45.660 485.644 M41.242 487.634 C 40.715 487.845,40.384 488.117,40.507 488.240 C 40.629 488.362,41.240 488.186,41.865 487.847 C 43.121 487.166,42.739 487.035,41.242 487.634 M37.800 489.207 C 36.908 489.645,36.642 489.884,37.200 489.747 C 38.369 489.459,40.386 488.435,39.800 488.427 C 39.580 488.423,38.680 488.775,37.800 489.207 M33.800 490.586 C 33.140 490.888,32.870 491.142,33.200 491.149 C 33.530 491.157,34.340 490.917,35.000 490.614 C 35.660 490.312,35.930 490.058,35.600 490.051 C 35.270 490.043,34.460 490.283,33.800 490.586 M29.866 491.803 C 28.803 492.095,27.813 492.462,27.666 492.617 C 27.520 492.772,27.760 492.798,28.200 492.673 C 28.640 492.549,29.765 492.250,30.700 492.008 C 31.635 491.767,32.400 491.486,32.400 491.385 C 32.400 491.137,32.125 491.182,29.866 491.803 M23.800 493.389 C 22.920 493.679,22.560 493.921,23.000 493.927 C 23.440 493.933,24.520 493.701,25.400 493.411 C 26.280 493.121,26.640 492.879,26.200 492.873 C 25.760 492.867,24.680 493.099,23.800 493.389 M17.600 494.540 C 15.796 494.843,15.368 495.011,16.200 495.087 C 16.860 495.148,18.390 494.948,19.600 494.643 C 22.223 493.982,21.222 493.930,17.600 494.540 M12.500 495.476 C 12.885 495.576,13.515 495.576,13.900 495.476 C 14.285 495.375,13.970 495.293,13.200 495.293 C 12.430 495.293,12.115 495.375,12.500 495.476 " stroke="none" fill="#dfab9e" fill-rule="evenodd"></path><path id="path4" d="M1.600 24.800 L 1.600 49.600 6.100 49.516 L 10.600 49.431 6.500 49.302 L 2.400 49.172 2.400 24.586 C 2.400 8.462,2.262 0.000,2.000 0.000 C 1.738 0.000,1.600 8.533,1.600 24.800 M398.800 198.403 L 398.800 396.806 374.300 396.703 L 349.800 396.600 349.584 390.600 L 349.367 384.600 349.284 390.900 L 349.200 397.200 374.400 397.200 L 399.600 397.200 399.600 198.600 C 399.600 66.467,399.466 0.000,399.200 0.000 C 398.934 0.000,398.800 66.401,398.800 198.403 M22.000 50.187 C 25.410 50.483,29.190 50.717,30.400 50.708 L 32.600 50.691 30.000 50.381 C 28.570 50.210,24.790 49.976,21.600 49.860 L 15.800 49.650 22.000 50.187 M34.505 51.087 C 35.114 51.179,36.014 51.177,36.505 51.082 C 36.997 50.987,36.500 50.911,35.400 50.914 C 34.300 50.917,33.897 50.995,34.505 51.087 M39.400 51.564 C 41.722 52.052,47.397 52.452,45.600 52.000 C 44.830 51.807,42.760 51.554,41.000 51.438 C 38.723 51.288,38.262 51.324,39.400 51.564 M49.200 52.758 C 49.750 52.932,51.640 53.183,53.400 53.316 C 55.160 53.449,56.150 53.415,55.600 53.242 C 55.050 53.068,53.160 52.817,51.400 52.684 C 49.640 52.551,48.650 52.585,49.200 52.758 M57.835 53.968 C 58.294 54.165,59.734 54.428,61.035 54.552 C 62.877 54.727,63.092 54.698,62.006 54.420 C 59.842 53.865,56.837 53.540,57.835 53.968 M66.477 55.573 C 68.009 56.065,72.004 56.491,71.000 56.056 C 70.560 55.865,69.120 55.601,67.800 55.468 C 66.202 55.307,65.760 55.342,66.477 55.573 M73.800 56.962 C 74.680 57.248,76.120 57.589,77.000 57.720 L 78.600 57.957 77.000 57.438 C 76.120 57.152,74.680 56.811,73.800 56.680 L 72.200 56.443 73.800 56.962 M79.800 58.368 C 80.240 58.543,81.320 58.791,82.200 58.919 L 83.800 59.152 82.200 58.607 C 81.320 58.307,80.240 58.059,79.800 58.056 L 79.000 58.051 79.800 58.368 M84.478 59.389 C 84.632 59.555,85.802 59.920,87.078 60.201 C 88.355 60.482,90.541 61.016,91.935 61.388 C 93.329 61.760,94.546 61.988,94.639 61.894 C 94.732 61.801,92.962 61.248,90.704 60.666 C 85.220 59.251,84.148 59.032,84.478 59.389 M95.600 62.337 C 95.930 62.541,96.830 62.827,97.600 62.971 C 98.530 63.146,98.799 63.110,98.400 62.863 C 98.070 62.659,97.170 62.373,96.400 62.229 C 95.470 62.054,95.201 62.090,95.600 62.337 M101.000 63.881 C 108.584 66.374,112.554 67.580,112.699 67.435 C 112.919 67.214,102.213 63.746,100.400 63.451 C 99.360 63.282,99.515 63.393,101.000 63.881 M114.200 68.214 C 114.860 68.517,115.670 68.757,116.000 68.749 C 116.330 68.742,116.060 68.488,115.400 68.186 C 114.740 67.883,113.930 67.643,113.600 67.651 C 113.270 67.658,113.540 67.912,114.200 68.214 M116.800 68.942 C 116.800 69.050,117.475 69.356,118.300 69.623 C 119.125 69.890,122.298 71.081,125.351 72.269 C 128.405 73.458,130.982 74.352,131.078 74.255 C 131.175 74.159,129.306 73.325,126.927 72.403 C 119.272 69.436,116.800 68.591,116.800 68.942 M132.600 75.005 C 133.260 75.310,135.510 76.271,137.600 77.142 C 139.690 78.013,142.630 79.297,144.134 79.995 C 145.638 80.693,146.968 81.165,147.090 81.043 C 147.211 80.922,146.881 80.652,146.355 80.445 C 145.830 80.237,143.510 79.228,141.200 78.203 C 136.783 76.244,132.079 74.382,131.652 74.426 C 131.514 74.440,131.940 74.700,132.600 75.005 M147.820 81.563 C 148.029 81.762,149.280 82.379,150.600 82.934 C 151.920 83.488,154.170 84.557,155.600 85.309 C 157.030 86.062,160.630 87.944,163.600 89.492 C 166.570 91.041,170.599 93.234,172.554 94.367 C 174.508 95.499,176.182 96.351,176.274 96.259 C 176.365 96.168,175.036 95.288,173.320 94.304 C 162.993 88.382,146.146 79.965,147.820 81.563 M176.800 96.527 C 176.800 96.635,177.835 97.305,179.100 98.015 C 180.365 98.725,182.300 99.888,183.400 100.599 C 185.365 101.871,189.058 104.227,193.800 107.236 C 199.324 110.741,219.535 125.774,223.822 129.566 C 224.713 130.355,225.979 131.461,226.633 132.024 C 230.996 135.780,238.089 142.197,242.000 145.928 C 244.530 148.341,246.648 150.271,246.707 150.218 C 246.958 149.987,236.871 140.499,228.584 133.169 C 215.328 121.445,176.800 94.183,176.800 96.527 M252.629 156.400 C 254.368 158.270,256.257 160.267,256.826 160.837 C 257.955 161.968,264.986 169.967,268.223 173.803 C 270.939 177.022,282.646 192.198,284.400 194.774 C 287.938 199.971,291.871 205.216,290.569 203.000 C 285.039 193.595,265.081 168.712,254.634 158.200 C 251.792 155.340,250.890 154.530,252.629 156.400 M291.431 204.800 C 291.596 205.130,292.308 206.300,293.012 207.400 C 293.717 208.500,295.101 210.660,296.089 212.200 C 300.687 219.369,307.982 232.334,312.253 240.928 C 314.837 246.128,317.031 250.303,317.128 250.206 C 317.454 249.879,307.358 230.262,303.291 223.321 C 297.831 214.002,289.615 201.173,291.431 204.800 M317.200 250.945 C 317.200 251.399,319.678 256.456,319.827 256.306 C 320.034 256.100,317.694 250.800,317.396 250.800 C 317.288 250.800,317.200 250.865,317.200 250.945 M320.036 257.000 C 320.034 257.220,320.659 258.660,321.423 260.200 C 322.188 261.740,322.697 262.550,322.555 262.000 C 322.246 260.806,320.040 256.426,320.036 257.000 M322.812 263.315 C 322.805 263.488,323.804 266.188,325.032 269.315 C 327.404 275.359,328.603 278.525,328.984 279.757 C 329.113 280.174,329.317 280.416,329.437 280.296 C 329.557 280.177,328.291 276.533,326.625 272.199 C 323.748 264.719,322.840 262.602,322.812 263.315 M329.629 281.029 C 329.588 281.633,330.857 285.276,331.044 285.090 C 331.128 285.005,330.851 283.960,330.428 282.768 C 330.005 281.576,329.645 280.793,329.629 281.029 M331.251 286.000 C 331.243 286.330,331.483 287.140,331.786 287.800 C 332.088 288.460,332.342 288.730,332.349 288.400 C 332.357 288.070,332.117 287.260,331.814 286.600 C 331.512 285.940,331.258 285.670,331.251 286.000 M332.451 289.600 C 332.443 289.930,332.683 290.740,332.986 291.400 C 333.288 292.060,333.542 292.330,333.549 292.000 C 333.557 291.670,333.317 290.860,333.014 290.200 C 332.712 289.540,332.458 289.270,332.451 289.600 M334.030 294.600 C 334.033 295.040,334.285 295.940,334.590 296.600 L 335.144 297.800 334.917 296.400 C 334.632 294.646,334.021 293.405,334.030 294.600 M335.202 298.633 C 335.207 299.234,337.593 307.326,337.839 307.572 C 338.122 307.855,337.768 306.341,336.541 302.024 C 335.652 298.894,335.196 297.741,335.202 298.633 M338.261 309.600 C 338.512 311.570,339.190 313.236,339.157 311.800 C 339.147 311.360,338.890 310.280,338.585 309.400 L 338.032 307.800 338.261 309.600 M339.378 314.200 C 339.965 317.501,340.484 319.650,340.653 319.480 C 340.864 319.269,339.622 313.085,339.311 312.800 C 339.192 312.690,339.222 313.320,339.378 314.200 M341.049 321.600 C 341.188 322.590,341.460 323.760,341.653 324.200 C 341.881 324.721,341.915 324.371,341.751 323.200 C 341.612 322.210,341.340 321.040,341.147 320.600 C 340.919 320.079,340.885 320.429,341.049 321.600 M342.295 327.195 C 342.423 328.403,342.756 330.293,343.033 331.395 L 343.538 333.400 343.305 331.205 C 343.177 329.997,342.844 328.107,342.567 327.005 L 342.062 325.000 342.295 327.195 M343.848 335.765 C 343.972 337.066,344.235 338.506,344.432 338.965 C 344.860 339.963,344.535 336.958,343.980 334.794 C 343.702 333.708,343.673 333.923,343.848 335.765 M345.062 342.600 C 345.447 346.531,346.013 348.746,345.769 345.361 C 345.656 343.800,345.398 342.000,345.195 341.361 C 344.925 340.508,344.889 340.836,345.062 342.600 M346.643 354.000 C 346.759 355.650,347.014 357.630,347.208 358.400 C 347.660 360.192,347.262 354.947,346.768 352.600 C 346.523 351.436,346.489 351.817,346.643 354.000 M347.886 365.600 C 348.011 368.350,348.255 371.950,348.427 373.600 C 348.640 375.636,348.674 374.714,348.531 370.729 C 348.415 367.500,348.171 363.900,347.989 362.729 C 347.773 361.335,347.737 362.326,347.886 365.600 M348.942 380.600 C 348.941 382.580,349.008 383.440,349.092 382.512 C 349.176 381.584,349.177 379.964,349.095 378.912 C 349.012 377.860,348.943 378.620,348.942 380.600 " stroke="none" fill="#b5abb1" fill-rule="evenodd"></path></g></svg>